<svg viewBox="-131 -12 1407 1464" width="880" role="img"><rect x="25" y="250" width="1120" height="400" rx="7" fill="none" stroke="#59647A" stroke-width="3"/><text x="33" y="244" style="font-family:ui-monospace,'SFMono-Regular',Menlo,Consolas,monospace" font-size="10.5" letter-spacing=".08em" fill="#59647A">FOR LOOP  N = batch size</text><text x="1139" y="244" text-anchor="end" style="font-family:ui-monospace,'SFMono-Regular',Menlo,Consolas,monospace" font-size="9.5" fill="#59647A">auto-indexing OFF on the inputs — the seed is computed from i</text><rect x="790" y="300" width="340" height="250" rx="7" fill="none" stroke="#59647A" stroke-width="3"/><text x="798" y="294" style="font-family:ui-monospace,'SFMono-Regular',Menlo,Consolas,monospace" font-size="10.5" letter-spacing=".08em" fill="#59647A">CASE STRUCTURE — TRUE (status = error)</text><text x="1124" y="294" text-anchor="end" style="font-family:ui-monospace,'SFMono-Regular',Menlo,Consolas,monospace" font-size="9.5" fill="#59647A">FALSE: refnum straight across, error straight across</text><path d="M 135 62 L 155.0 62 L 155.0 65.0 L 175 65.0" fill="none" stroke="#BB4FB0" stroke-width="3" stroke-linejoin="round"/><path d="M 135 127 L 155.0 127 L 155.0 83.33333333333333 L 175 83.33333333333333" fill="none" stroke="#3D6FE0" stroke-width="3" stroke-linejoin="round"/><path d="M 330 65.0 L 352.5 65.0 L 352.5 80.0 L 375 80.0" fill="none" stroke="#6B7A8F" stroke-width="3" stroke-linejoin="round"/><path d="M 330 120.0 L 375 119.0" fill="none" stroke="#6B6F2A" stroke-width="4" stroke-linejoin="round"/><path d="M 560 119.0 L 585.0 119.0 L 585.0 87 L 610 87" fill="none" stroke="#6B6F2A" stroke-width="4" stroke-linejoin="round"/><path d="M 560 80.0 L 292.5 80.0 L 292.5 300 L 25 300" fill="none" stroke="#6B7A8F" stroke-width="3" stroke-linejoin="round"/><path d="M 765 108.0 L 395.0 108.0 L 395.0 360 L 25 360" fill="none" stroke="#6B6F2A" stroke-width="4" stroke-linejoin="round"/><path d="M 165 217 L 100.5 217 L 100.5 250 L 36 250" fill="none" stroke="#3D6FE0" stroke-width="3" stroke-linejoin="round"/><path d="M 31 300 L 195.5 300 L 195.5 350.0 L 360 350.0" fill="none" stroke="#6B7A8F" stroke-width="3" stroke-linejoin="round"/><path d="M 31 360 L 195.5 360 L 195.5 421.0 L 360 421.0" fill="none" stroke="#6B6F2A" stroke-width="4" stroke-linejoin="round"/><path d="M 42 636 L 121.0 636 L 121.0 450.0 L 200 450.0" fill="none" stroke="#3D6FE0" stroke-width="3" stroke-linejoin="round"/><path d="M 155 382 L 177.5 382 L 177.5 473.0 L 200 473.0" fill="none" stroke="#3D6FE0" stroke-width="3" stroke-linejoin="round"/><path d="M 310 452 L 335.0 452 L 335.0 367.75 L 360 367.75" fill="none" stroke="#3D6FE0" stroke-width="3" stroke-linejoin="round" class="lvd-flow"/><path d="M 155 297 L 167 297 L 167 305 L 348 305 L 348 385.5 L 360 385.5" fill="none" stroke="#3F9C4E" stroke-width="3" stroke-linejoin="round"/><path d="M 275 297 L 317.5 297 L 317.5 403.25 L 360 403.25" fill="none" stroke="#3F9C4E" stroke-width="3" stroke-linejoin="round"/><path d="M 555 367.75 L 587.5 367.75 L 587.5 287 L 620 287" fill="none" stroke="#C77A1F" stroke-width="3" stroke-linejoin="round"/><path d="M 555 421.0 L 587.5 421.0 L 587.5 412 L 620 412" fill="none" stroke="#6B6F2A" stroke-width="4" stroke-linejoin="round"/><path d="M 555 421.0 L 587.5 421.0 L 587.5 502 L 620 502" fill="none" stroke="#6B6F2A" stroke-width="4" stroke-linejoin="round"/><path d="M 785 410.0 L 787.5 410.0 L 787.5 420 L 790 420" fill="none" stroke="#3F9C4E" stroke-width="3" stroke-linejoin="round"/><path d="M 555 350.0 L 790 350" fill="none" stroke="#6B7A8F" stroke-width="3" stroke-linejoin="round"/><path d="M 790 350 L 805 350.0" fill="none" stroke="#6B7A8F" stroke-width="3" stroke-linejoin="round"/><path d="M 770 502 L 780.0 502 L 780.0 520 L 790 520" fill="none" stroke="#6B6F2A" stroke-width="4" stroke-linejoin="round"/><path d="M 790 520 L 797.5 520 L 797.5 373.0 L 805 373.0" fill="none" stroke="#6B6F2A" stroke-width="4" stroke-linejoin="round"/><path d="M 915 437 L 935.0 437 L 935.0 435.0 L 955 435.0" fill="none" stroke="#BB4FB0" stroke-width="3" stroke-linejoin="round"/><path d="M 915 497 L 935.0 497 L 935.0 454.5 L 955 454.5" fill="none" stroke="#3D6FE0" stroke-width="3" stroke-linejoin="round"/><path d="M 940 352 L 947.5 352 L 947.5 474.0 L 955 474.0" fill="none" stroke="#6B6F2A" stroke-width="4" stroke-linejoin="round"/><path d="M 1120 435.0 L 1125.0 435.0 L 1125.0 350 L 1130 350" fill="none" stroke="#6B7A8F" stroke-width="3" stroke-linejoin="round"/><path d="M 1130 350 L 1137.5 350 L 1137.5 300 L 1145 300" fill="none" stroke="#C77A1F" stroke-width="3" stroke-linejoin="round"/><path d="M 1120 474.0 L 1125.0 474.0 L 1125.0 520 L 1130 520" fill="none" stroke="#6B6F2A" stroke-width="4" stroke-linejoin="round"/><path d="M 1130 520 L 1137.5 520 L 1137.5 360 L 1145 360" fill="none" stroke="#C77A1F" stroke-width="3" stroke-linejoin="round"/><path d="M 145 712 L 637.5 712 L 637.5 636 L 1130 636" fill="none" stroke="#3F9C4E" stroke-width="3" stroke-linejoin="round"/><path d="M 785 287 L 965.0 287 L 965.0 265 L 1145 265" fill="none" stroke="#3F9C4E" stroke-width="3" stroke-linejoin="round"/><path d="M 785 410.0 L 782.5 410.0 L 782.5 575 L 780 575" fill="none" stroke="#3F9C4E" stroke-width="3" stroke-linejoin="round"/><path d="M 780 575 L 962.5 575 L 962.5 560 L 1145 560" fill="none" stroke="#C77A1F" stroke-width="3" stroke-linejoin="round"/><path d="M 785 433.0 L 777.5 433.0 L 777.5 600 L 770 600" fill="none" stroke="#3D6FE0" stroke-width="3" stroke-linejoin="round"/><path d="M 770 600 L 957.5 600 L 957.5 590 L 1145 590" fill="none" stroke="#C77A1F" stroke-width="3" stroke-linejoin="round"/><path d="M 555 385.5 L 850.0 385.5 L 850.0 620 L 1145 620" fill="none" stroke="#BB4FB0" stroke-width="3" stroke-linejoin="round"/><path d="M 1145 265 L 1175 265" fill="none" stroke="#C77A1F" stroke-width="3" stroke-linejoin="round"/><path d="M 1175 265 L 1187 265 L 1187 720 L 188 720 L 188 792 L 200 792" fill="none" stroke="#3F9C4E" stroke-width="3" stroke-linejoin="round"/><path d="M 1145 560 L 1205 560" fill="none" stroke="#C77A1F" stroke-width="3" stroke-linejoin="round"/><path d="M 1205 560 L 687.5 560 L 687.5 862 L 170 862" fill="none" stroke="#C77A1F" stroke-width="3" stroke-linejoin="round"/><path d="M 170 862 L 200 862" fill="none" stroke="#3F9C4E" stroke-width="3" stroke-linejoin="round"/><path d="M 1145 590 L 1235 590" fill="none" stroke="#C77A1F" stroke-width="3" stroke-linejoin="round"/><path d="M 1235 590 L 1247 590 L 1247 670 L 868 670 L 868 722 L 880 722" fill="none" stroke="#3D6FE0" stroke-width="3" stroke-linejoin="round"/><path d="M 1145 620 L 1265 620" fill="none" stroke="#C77A1F" stroke-width="3" stroke-linejoin="round"/><path d="M 1265 620 L 1277 620 L 1277 1060 L 868 1060 L 868 1032 L 880 1032" fill="none" stroke="#BB4FB0" stroke-width="3" stroke-linejoin="round"/><path d="M 350 792 L 400 792" fill="none" stroke="#3D6FE0" stroke-width="3" stroke-linejoin="round"/><path d="M 350 862 L 400 862" fill="none" stroke="#3D6FE0" stroke-width="3" stroke-linejoin="round"/><path d="M 590 792 L 615.0 792 L 615.0 810.0 L 640 810.0" fill="none" stroke="#C77A1F" stroke-width="3" stroke-linejoin="round"/><path d="M 590 862 L 615.0 862 L 615.0 833.0 L 640 833.0" fill="none" stroke="#C77A1F" stroke-width="3" stroke-linejoin="round"/><path d="M 770 812 L 795.0 812 L 795.0 820.0 L 820 820.0" fill="none" stroke="#C77A1F" stroke-width="3" stroke-linejoin="round"/><path d="M 590 792 L 602 792 L 602 880 L 808 880 L 808 843.0 L 820 843.0" fill="none" stroke="#C77A1F" stroke-width="3" stroke-linejoin="round"/><path d="M 950 822 L 985.0 822 L 985.0 820.0 L 1020 820.0" fill="none" stroke="#C77A1F" stroke-width="3" stroke-linejoin="round"/><path d="M 970 932 L 995.0 932 L 995.0 843.0 L 1020 843.0" fill="none" stroke="#C77A1F" stroke-width="3" stroke-linejoin="round"/><path d="M 1160 822 L 1172 822 L 1172 900 L 1008 900 L 1008 972 L 1020 972" fill="none" stroke="#C77A1F" stroke-width="3" stroke-linejoin="round"/><path d="M 1145 300 L 1295 300" fill="none" stroke="#C77A1F" stroke-width="3" stroke-linejoin="round"/><path d="M 1295 300 L 1307 300 L 1307 1105 L 1008 1105 L 1008 1120.0 L 1020 1120.0" fill="none" stroke="#6B7A8F" stroke-width="3" stroke-linejoin="round"/><path d="M 1145 360 L 1325 360" fill="none" stroke="#C77A1F" stroke-width="3" stroke-linejoin="round"/><path d="M 1325 360 L 1337 360 L 1337 1135 L 1008 1135 L 1008 1143.0 L 1020 1143.0" fill="none" stroke="#6B6F2A" stroke-width="4" stroke-linejoin="round"/><path d="M 1190 1122 L 975.0 1122 L 975.0 1142 L 760 1142" fill="none" stroke="#6B6F2A" stroke-width="4" stroke-linejoin="round"/><rect x="25" y="30" width="110" height="44" rx="4" fill="#ECEEF3" stroke="#C7CDD8" stroke-width="2"/><text x="80.0" y="45" text-anchor="middle" style="font-family:ui-monospace,'SFMono-Regular',Menlo,Consolas,monospace" font-size="11.5" font-weight="600" fill="#1B2130">"127.0.0.1"</text><rect x="130" y="58" width="10" height="8" fill="#BB4FB0"/><text x="127" y="65.5" text-anchor="end" style="font-family:ui-monospace,'SFMono-Regular',Menlo,Consolas,monospace" font-size="9" fill="#59647A"></text><rect x="25" y="95" width="110" height="44" rx="4" fill="#ECEEF3" stroke="#C7CDD8" stroke-width="2"/><text x="80.0" y="110" text-anchor="middle" style="font-family:ui-monospace,'SFMono-Regular',Menlo,Consolas,monospace" font-size="11.5" font-weight="600" fill="#1B2130">5025</text><rect x="130" y="123" width="10" height="8" fill="#3D6FE0"/><text x="127" y="130.5" text-anchor="end" style="font-family:ui-monospace,'SFMono-Regular',Menlo,Consolas,monospace" font-size="9" fill="#59647A"></text><rect x="175" y="35" width="155" height="92" rx="4" fill="#ECEEF3" stroke="#C7CDD8" stroke-width="2"/><text x="252.5" y="50" text-anchor="middle" style="font-family:ui-monospace,'SFMono-Regular',Menlo,Consolas,monospace" font-size="11.5" font-weight="600" fill="#1B2130">TCP Open Connection</text><rect x="170" y="61.0" width="10" height="8" fill="#BB4FB0"/><text x="183" y="68.5" style="font-family:ui-monospace,'SFMono-Regular',Menlo,Consolas,monospace" font-size="9" fill="#59647A">net address</text><rect x="170" y="79.33333333333333" width="10" height="8" fill="#3D6FE0"/><text x="183" y="86.83333333333333" style="font-family:ui-monospace,'SFMono-Regular',Menlo,Consolas,monospace" font-size="9" fill="#59647A">remote port</text><rect x="170" y="97.66666666666666" width="10" height="8" fill="#3D6FE0"/><text x="183" y="105.16666666666666" style="font-family:ui-monospace,'SFMono-Regular',Menlo,Consolas,monospace" font-size="9" fill="#59647A">timeout ms</text><rect x="170" y="116.0" width="10" height="8" fill="#6B6F2A"/><text x="183" y="123.5" style="font-family:ui-monospace,'SFMono-Regular',Menlo,Consolas,monospace" font-size="9" fill="#59647A">error in</text><rect x="325" y="61.0" width="10" height="8" fill="#6B7A8F"/><text x="322" y="68.5" text-anchor="end" style="font-family:ui-monospace,'SFMono-Regular',Menlo,Consolas,monospace" font-size="9" fill="#59647A">connection ID</text><rect x="325" y="116.0" width="10" height="8" fill="#6B6F2A"/><text x="322" y="123.5" text-anchor="end" style="font-family:ui-monospace,'SFMono-Regular',Menlo,Consolas,monospace" font-size="9" fill="#59647A">error out</text><rect x="375" y="40" width="185" height="86" rx="4" fill="#ECEEF3" stroke="#C7CDD8" stroke-width="2"/><text x="467.5" y="55" text-anchor="middle" style="font-family:ui-monospace,'SFMono-Regular',Menlo,Consolas,monospace" font-size="11.5" font-weight="600" fill="#1B2130">Golden-unit gate</text><text x="467.5" y="67" text-anchor="middle" style="font-family:ui-monospace,'SFMono-Regular',Menlo,Consolas,monospace" font-size="9" fill="#59647A">DUT_Query + Equal? + Case</text><rect x="370" y="76.0" width="10" height="8" fill="#6B7A8F"/><text x="383" y="83.5" style="font-family:ui-monospace,'SFMono-Regular',Menlo,Consolas,monospace" font-size="9" fill="#59647A">connection ID</text><rect x="370" y="115.0" width="10" height="8" fill="#6B6F2A"/><text x="383" y="122.5" style="font-family:ui-monospace,'SFMono-Regular',Menlo,Consolas,monospace" font-size="9" fill="#59647A">error in</text><rect x="555" y="76.0" width="10" height="8" fill="#6B7A8F"/><text x="552" y="83.5" text-anchor="end" style="font-family:ui-monospace,'SFMono-Regular',Menlo,Consolas,monospace" font-size="9" fill="#59647A">connection ID out</text><rect x="555" y="95.5" width="10" height="8" fill="#3F9C4E"/><text x="552" y="103.0" text-anchor="end" style="font-family:ui-monospace,'SFMono-Regular',Menlo,Consolas,monospace" font-size="9" fill="#59647A">golden pass?</text><rect x="555" y="115.0" width="10" height="8" fill="#6B6F2A"/><text x="552" y="122.5" text-anchor="end" style="font-family:ui-monospace,'SFMono-Regular',Menlo,Consolas,monospace" font-size="9" fill="#59647A">error out</text><rect x="610" y="45" width="155" height="70" rx="4" fill="#ECEEF3" stroke="#C7CDD8" stroke-width="2"/><text x="687.5" y="60" text-anchor="middle" style="font-family:ui-monospace,'SFMono-Regular',Menlo,Consolas,monospace" font-size="11.5" font-weight="600" fill="#1B2130">Load_Limits.vi</text><text x="687.5" y="72" text-anchor="middle" style="font-family:ui-monospace,'SFMono-Regular',Menlo,Consolas,monospace" font-size="9" fill="#59647A">SubVI</text><rect x="605" y="83" width="10" height="8" fill="#6B6F2A"/><text x="618" y="90.5" style="font-family:ui-monospace,'SFMono-Regular',Menlo,Consolas,monospace" font-size="9" fill="#59647A">error in</text><rect x="760" y="81.0" width="10" height="8" fill="#C77A1F"/><text x="757" y="88.5" text-anchor="end" style="font-family:ui-monospace,'SFMono-Regular',Menlo,Consolas,monospace" font-size="9" fill="#59647A">limits</text><rect x="760" y="104.0" width="10" height="8" fill="#6B6F2A"/><text x="757" y="111.5" text-anchor="end" style="font-family:ui-monospace,'SFMono-Regular',Menlo,Consolas,monospace" font-size="9" fill="#59647A">error out</text><rect x="25" y="185" width="140" height="44" rx="4" fill="#FFFFFF" stroke="#C7CDD8" stroke-width="2" stroke-dasharray="5 3"/><text x="95.0" y="200" text-anchor="middle" style="font-family:ui-monospace,'SFMono-Regular',Menlo,Consolas,monospace" font-size="11.5" font-weight="600" fill="#1B2130">batch size</text><rect x="160" y="213" width="10" height="8" fill="#3D6FE0"/><text x="157" y="220.5" text-anchor="end" style="font-family:ui-monospace,'SFMono-Regular',Menlo,Consolas,monospace" font-size="9" fill="#59647A"></text><rect x="60" y="255" width="95" height="54" rx="4" fill="#ECEEF3" stroke="#C7CDD8" stroke-width="2"/><text x="107.5" y="270" text-anchor="middle" style="font-family:ui-monospace,'SFMono-Regular',Menlo,Consolas,monospace" font-size="11.5" font-weight="600" fill="#1B2130">F</text><text x="107.5" y="282" text-anchor="middle" style="font-family:ui-monospace,'SFMono-Regular',Menlo,Consolas,monospace" font-size="9" fill="#59647A">golden? = FALSE</text><rect x="150" y="293" width="10" height="8" fill="#3F9C4E"/><text x="147" y="300.5" text-anchor="end" style="font-family:ui-monospace,'SFMono-Regular',Menlo,Consolas,monospace" font-size="9" fill="#59647A"></text><rect x="180" y="255" width="95" height="54" rx="4" fill="#ECEEF3" stroke="#C7CDD8" stroke-width="2"/><text x="227.5" y="270" text-anchor="middle" style="font-family:ui-monospace,'SFMono-Regular',Menlo,Consolas,monospace" font-size="11.5" font-weight="600" fill="#1B2130">T</text><text x="227.5" y="282" text-anchor="middle" style="font-family:ui-monospace,'SFMono-Regular',Menlo,Consolas,monospace" font-size="9" fill="#59647A">log to csv? = TRUE</text><rect x="270" y="293" width="10" height="8" fill="#3F9C4E"/><text x="267" y="300.5" text-anchor="end" style="font-family:ui-monospace,'SFMono-Regular',Menlo,Consolas,monospace" font-size="9" fill="#59647A"></text><rect x="55" y="340" width="100" height="54" rx="4" fill="#ECEEF3" stroke="#C7CDD8" stroke-width="2"/><text x="105.0" y="355" text-anchor="middle" style="font-family:ui-monospace,'SFMono-Regular',Menlo,Consolas,monospace" font-size="11.5" font-weight="600" fill="#1B2130">4200</text><text x="105.0" y="367" text-anchor="middle" style="font-family:ui-monospace,'SFMono-Regular',Menlo,Consolas,monospace" font-size="9" fill="#59647A">base seed</text><rect x="150" y="378" width="10" height="8" fill="#3D6FE0"/><text x="147" y="385.5" text-anchor="end" style="font-family:ui-monospace,'SFMono-Regular',Menlo,Consolas,monospace" font-size="9" fill="#59647A"></text><rect x="200" y="420" width="110" height="60" rx="4" fill="#ECEEF3" stroke="#C7CDD8" stroke-width="2"/><text x="255.0" y="435" text-anchor="middle" style="font-family:ui-monospace,'SFMono-Regular',Menlo,Consolas,monospace" font-size="11.5" font-weight="600" fill="#1B2130">Add</text><rect x="195" y="446.0" width="10" height="8" fill="#3D6FE0"/><text x="208" y="453.5" style="font-family:ui-monospace,'SFMono-Regular',Menlo,Consolas,monospace" font-size="9" fill="#59647A">x</text><rect x="195" y="469.0" width="10" height="8" fill="#3D6FE0"/><text x="208" y="476.5" style="font-family:ui-monospace,'SFMono-Regular',Menlo,Consolas,monospace" font-size="9" fill="#59647A">y</text><rect x="305" y="448" width="10" height="8" fill="#3D6FE0"/><text x="302" y="455.5" text-anchor="end" style="font-family:ui-monospace,'SFMono-Regular',Menlo,Consolas,monospace" font-size="9" fill="#59647A">x+y</text><rect x="360" y="310" width="195" height="118" rx="4" fill="#ECEEF3" stroke="#C7CDD8" stroke-width="2"/><text x="457.5" y="325" text-anchor="middle" style="font-family:ui-monospace,'SFMono-Regular',Menlo,Consolas,monospace" font-size="11.5" font-weight="600" fill="#1B2130">Sequencer.vi</text><text x="457.5" y="337" text-anchor="middle" style="font-family:ui-monospace,'SFMono-Regular',Menlo,Consolas,monospace" font-size="9" fill="#59647A">SubVI — one whole unit</text><rect x="355" y="346.0" width="10" height="8" fill="#6B7A8F"/><text x="368" y="353.5" style="font-family:ui-monospace,'SFMono-Regular',Menlo,Consolas,monospace" font-size="9" fill="#59647A">connection ID</text><rect x="355" y="363.75" width="10" height="8" fill="#3D6FE0"/><text x="368" y="371.25" style="font-family:ui-monospace,'SFMono-Regular',Menlo,Consolas,monospace" font-size="9" fill="#59647A">seed</text><rect x="355" y="381.5" width="10" height="8" fill="#3F9C4E"/><text x="368" y="389.0" style="font-family:ui-monospace,'SFMono-Regular',Menlo,Consolas,monospace" font-size="9" fill="#59647A">golden?</text><rect x="355" y="399.25" width="10" height="8" fill="#3F9C4E"/><text x="368" y="406.75" style="font-family:ui-monospace,'SFMono-Regular',Menlo,Consolas,monospace" font-size="9" fill="#59647A">log to csv?</text><rect x="355" y="417.0" width="10" height="8" fill="#6B6F2A"/><text x="368" y="424.5" style="font-family:ui-monospace,'SFMono-Regular',Menlo,Consolas,monospace" font-size="9" fill="#59647A">error in</text><rect x="550" y="346.0" width="10" height="8" fill="#6B7A8F"/><text x="547" y="353.5" text-anchor="end" style="font-family:ui-monospace,'SFMono-Regular',Menlo,Consolas,monospace" font-size="9" fill="#59647A">connection ID out</text><rect x="550" y="363.75" width="10" height="8" fill="#C77A1F"/><text x="547" y="371.25" text-anchor="end" style="font-family:ui-monospace,'SFMono-Regular',Menlo,Consolas,monospace" font-size="9" fill="#59647A">TestData</text><rect x="550" y="381.5" width="10" height="8" fill="#BB4FB0"/><text x="547" y="389.0" text-anchor="end" style="font-family:ui-monospace,'SFMono-Regular',Menlo,Consolas,monospace" font-size="9" fill="#59647A">csv row</text><rect x="550" y="399.25" width="10" height="8" fill="#BB4FB0"/><text x="547" y="406.75" text-anchor="end" style="font-family:ui-monospace,'SFMono-Regular',Menlo,Consolas,monospace" font-size="9" fill="#59647A">first failed step</text><rect x="550" y="417.0" width="10" height="8" fill="#6B6F2A"/><text x="547" y="424.5" text-anchor="end" style="font-family:ui-monospace,'SFMono-Regular',Menlo,Consolas,monospace" font-size="9" fill="#59647A">error out</text><rect x="620" y="255" width="165" height="44" rx="4" fill="#ECEEF3" stroke="#C7CDD8" stroke-width="2"/><text x="702.5" y="270" text-anchor="middle" style="font-family:ui-monospace,'SFMono-Regular',Menlo,Consolas,monospace" font-size="11.5" font-weight="600" fill="#1B2130">Unbundle By Name</text><rect x="615" y="283" width="10" height="8" fill="#C77A1F"/><text x="628" y="290.5" style="font-family:ui-monospace,'SFMono-Regular',Menlo,Consolas,monospace" font-size="9" fill="#59647A">TestData</text><rect x="780" y="283" width="10" height="8" fill="#3F9C4E"/><text x="777" y="290.5" text-anchor="end" style="font-family:ui-monospace,'SFMono-Regular',Menlo,Consolas,monospace" font-size="9" fill="#59647A">overall pass?</text><rect x="620" y="380" width="165" height="60" rx="4" fill="#ECEEF3" stroke="#C7CDD8" stroke-width="2"/><text x="702.5" y="395" text-anchor="middle" style="font-family:ui-monospace,'SFMono-Regular',Menlo,Consolas,monospace" font-size="11.5" font-weight="600" fill="#1B2130">Unbundle By Name</text><rect x="615" y="408" width="10" height="8" fill="#6B6F2A"/><text x="628" y="415.5" style="font-family:ui-monospace,'SFMono-Regular',Menlo,Consolas,monospace" font-size="9" fill="#59647A"></text><rect x="780" y="406.0" width="10" height="8" fill="#3F9C4E"/><text x="777" y="413.5" text-anchor="end" style="font-family:ui-monospace,'SFMono-Regular',Menlo,Consolas,monospace" font-size="9" fill="#59647A">status</text><rect x="780" y="429.0" width="10" height="8" fill="#3D6FE0"/><text x="777" y="436.5" text-anchor="end" style="font-family:ui-monospace,'SFMono-Regular',Menlo,Consolas,monospace" font-size="9" fill="#59647A">code</text><rect x="620" y="470" width="150" height="44" rx="4" fill="#ECEEF3" stroke="#C7CDD8" stroke-width="2"/><text x="695.0" y="485" text-anchor="middle" style="font-family:ui-monospace,'SFMono-Regular',Menlo,Consolas,monospace" font-size="11.5" font-weight="600" fill="#1B2130">Clear Errors</text><rect x="615" y="498" width="10" height="8" fill="#6B6F2A"/><text x="628" y="505.5" style="font-family:ui-monospace,'SFMono-Regular',Menlo,Consolas,monospace" font-size="9" fill="#59647A">error in</text><rect x="765" y="498" width="10" height="8" fill="#6B6F2A"/><text x="762" y="505.5" text-anchor="end" style="font-family:ui-monospace,'SFMono-Regular',Menlo,Consolas,monospace" font-size="9" fill="#59647A">error out</text><rect x="805" y="320" width="135" height="60" rx="4" fill="#ECEEF3" stroke="#C7CDD8" stroke-width="2"/><text x="872.5" y="335" text-anchor="middle" style="font-family:ui-monospace,'SFMono-Regular',Menlo,Consolas,monospace" font-size="11.5" font-weight="600" fill="#1B2130">TCP Close Connection</text><rect x="800" y="346.0" width="10" height="8" fill="#6B7A8F"/><text x="813" y="353.5" style="font-family:ui-monospace,'SFMono-Regular',Menlo,Consolas,monospace" font-size="9" fill="#59647A">connection ID</text><rect x="800" y="369.0" width="10" height="8" fill="#6B6F2A"/><text x="813" y="376.5" style="font-family:ui-monospace,'SFMono-Regular',Menlo,Consolas,monospace" font-size="9" fill="#59647A">error in</text><rect x="935" y="348" width="10" height="8" fill="#6B6F2A"/><text x="932" y="355.5" text-anchor="end" style="font-family:ui-monospace,'SFMono-Regular',Menlo,Consolas,monospace" font-size="9" fill="#59647A">error out</text><rect x="805" y="405" width="110" height="44" rx="4" fill="#ECEEF3" stroke="#C7CDD8" stroke-width="2"/><text x="860.0" y="420" text-anchor="middle" style="font-family:ui-monospace,'SFMono-Regular',Menlo,Consolas,monospace" font-size="11.5" font-weight="600" fill="#1B2130">"127.0.0.1"</text><rect x="910" y="433" width="10" height="8" fill="#BB4FB0"/><text x="907" y="440.5" text-anchor="end" style="font-family:ui-monospace,'SFMono-Regular',Menlo,Consolas,monospace" font-size="9" fill="#59647A"></text><rect x="805" y="465" width="110" height="44" rx="4" fill="#ECEEF3" stroke="#C7CDD8" stroke-width="2"/><text x="860.0" y="480" text-anchor="middle" style="font-family:ui-monospace,'SFMono-Regular',Menlo,Consolas,monospace" font-size="11.5" font-weight="600" fill="#1B2130">5025</text><rect x="910" y="493" width="10" height="8" fill="#3D6FE0"/><text x="907" y="500.5" text-anchor="end" style="font-family:ui-monospace,'SFMono-Regular',Menlo,Consolas,monospace" font-size="9" fill="#59647A"></text><rect x="955" y="405" width="165" height="76" rx="4" fill="#ECEEF3" stroke="#C7CDD8" stroke-width="2"/><text x="1037.5" y="420" text-anchor="middle" style="font-family:ui-monospace,'SFMono-Regular',Menlo,Consolas,monospace" font-size="11.5" font-weight="600" fill="#1B2130">TCP Open Connection</text><rect x="950" y="431.0" width="10" height="8" fill="#BB4FB0"/><text x="963" y="438.5" style="font-family:ui-monospace,'SFMono-Regular',Menlo,Consolas,monospace" font-size="9" fill="#59647A">net address</text><rect x="950" y="450.5" width="10" height="8" fill="#3D6FE0"/><text x="963" y="458.0" style="font-family:ui-monospace,'SFMono-Regular',Menlo,Consolas,monospace" font-size="9" fill="#59647A">remote port</text><rect x="950" y="470.0" width="10" height="8" fill="#6B6F2A"/><text x="963" y="477.5" style="font-family:ui-monospace,'SFMono-Regular',Menlo,Consolas,monospace" font-size="9" fill="#59647A">error in</text><rect x="1115" y="431.0" width="10" height="8" fill="#6B7A8F"/><text x="1112" y="438.5" text-anchor="end" style="font-family:ui-monospace,'SFMono-Regular',Menlo,Consolas,monospace" font-size="9" fill="#59647A">connection ID</text><rect x="1115" y="470.0" width="10" height="8" fill="#6B6F2A"/><text x="1112" y="477.5" text-anchor="end" style="font-family:ui-monospace,'SFMono-Regular',Menlo,Consolas,monospace" font-size="9" fill="#59647A">error out</text><rect x="25" y="680" width="120" height="44" rx="4" fill="#FFFFFF" stroke="#C7CDD8" stroke-width="2" stroke-dasharray="5 3"/><text x="85.0" y="695" text-anchor="middle" style="font-family:ui-monospace,'SFMono-Regular',Menlo,Consolas,monospace" font-size="11.5" font-weight="600" fill="#1B2130">STOP</text><rect x="140" y="708" width="10" height="8" fill="#3F9C4E"/><text x="137" y="715.5" text-anchor="end" style="font-family:ui-monospace,'SFMono-Regular',Menlo,Consolas,monospace" font-size="9" fill="#59647A"></text><rect x="200" y="760" width="150" height="44" rx="4" fill="#ECEEF3" stroke="#C7CDD8" stroke-width="2"/><text x="275.0" y="775" text-anchor="middle" style="font-family:ui-monospace,'SFMono-Regular',Menlo,Consolas,monospace" font-size="11.5" font-weight="600" fill="#1B2130">Array Size</text><rect x="195" y="788" width="10" height="8" fill="#3F9C4E"/><text x="208" y="795.5" style="font-family:ui-monospace,'SFMono-Regular',Menlo,Consolas,monospace" font-size="9" fill="#59647A">array</text><rect x="345" y="788" width="10" height="8" fill="#3D6FE0"/><text x="342" y="795.5" text-anchor="end" style="font-family:ui-monospace,'SFMono-Regular',Menlo,Consolas,monospace" font-size="9" fill="#59647A">size(s)</text><rect x="200" y="830" width="150" height="44" rx="4" fill="#ECEEF3" stroke="#C7CDD8" stroke-width="2"/><text x="275.0" y="845" text-anchor="middle" style="font-family:ui-monospace,'SFMono-Regular',Menlo,Consolas,monospace" font-size="11.5" font-weight="600" fill="#1B2130">Array Size</text><rect x="195" y="858" width="10" height="8" fill="#3F9C4E"/><text x="208" y="865.5" style="font-family:ui-monospace,'SFMono-Regular',Menlo,Consolas,monospace" font-size="9" fill="#59647A">array</text><rect x="345" y="858" width="10" height="8" fill="#3D6FE0"/><text x="342" y="865.5" text-anchor="end" style="font-family:ui-monospace,'SFMono-Regular',Menlo,Consolas,monospace" font-size="9" fill="#59647A">size(s)</text><rect x="400" y="760" width="190" height="44" rx="4" fill="#ECEEF3" stroke="#C7CDD8" stroke-width="2"/><text x="495.0" y="775" text-anchor="middle" style="font-family:ui-monospace,'SFMono-Regular',Menlo,Consolas,monospace" font-size="11.5" font-weight="600" fill="#1B2130">To Double Precision Float</text><rect x="395" y="788" width="10" height="8" fill="#3D6FE0"/><text x="408" y="795.5" style="font-family:ui-monospace,'SFMono-Regular',Menlo,Consolas,monospace" font-size="9" fill="#59647A"></text><rect x="585" y="788" width="10" height="8" fill="#C77A1F"/><text x="582" y="795.5" text-anchor="end" style="font-family:ui-monospace,'SFMono-Regular',Menlo,Consolas,monospace" font-size="9" fill="#59647A"></text><rect x="400" y="830" width="190" height="44" rx="4" fill="#ECEEF3" stroke="#C7CDD8" stroke-width="2"/><text x="495.0" y="845" text-anchor="middle" style="font-family:ui-monospace,'SFMono-Regular',Menlo,Consolas,monospace" font-size="11.5" font-weight="600" fill="#1B2130">To Double Precision Float</text><rect x="395" y="858" width="10" height="8" fill="#3D6FE0"/><text x="408" y="865.5" style="font-family:ui-monospace,'SFMono-Regular',Menlo,Consolas,monospace" font-size="9" fill="#59647A"></text><rect x="585" y="858" width="10" height="8" fill="#C77A1F"/><text x="582" y="865.5" text-anchor="end" style="font-family:ui-monospace,'SFMono-Regular',Menlo,Consolas,monospace" font-size="9" fill="#59647A"></text><rect x="640" y="780" width="130" height="60" rx="4" fill="#ECEEF3" stroke="#C7CDD8" stroke-width="2"/><text x="705.0" y="795" text-anchor="middle" style="font-family:ui-monospace,'SFMono-Regular',Menlo,Consolas,monospace" font-size="11.5" font-weight="600" fill="#1B2130">Subtract</text><rect x="635" y="806.0" width="10" height="8" fill="#C77A1F"/><text x="648" y="813.5" style="font-family:ui-monospace,'SFMono-Regular',Menlo,Consolas,monospace" font-size="9" fill="#59647A">x</text><rect x="635" y="829.0" width="10" height="8" fill="#C77A1F"/><text x="648" y="836.5" style="font-family:ui-monospace,'SFMono-Regular',Menlo,Consolas,monospace" font-size="9" fill="#59647A">y</text><rect x="765" y="808" width="10" height="8" fill="#C77A1F"/><text x="762" y="815.5" text-anchor="end" style="font-family:ui-monospace,'SFMono-Regular',Menlo,Consolas,monospace" font-size="9" fill="#59647A">x-y</text><rect x="820" y="790" width="130" height="60" rx="4" fill="#ECEEF3" stroke="#C7CDD8" stroke-width="2"/><text x="885.0" y="805" text-anchor="middle" style="font-family:ui-monospace,'SFMono-Regular',Menlo,Consolas,monospace" font-size="11.5" font-weight="600" fill="#1B2130">Divide</text><rect x="815" y="816.0" width="10" height="8" fill="#C77A1F"/><text x="828" y="823.5" style="font-family:ui-monospace,'SFMono-Regular',Menlo,Consolas,monospace" font-size="9" fill="#59647A">x</text><rect x="815" y="839.0" width="10" height="8" fill="#C77A1F"/><text x="828" y="846.5" style="font-family:ui-monospace,'SFMono-Regular',Menlo,Consolas,monospace" font-size="9" fill="#59647A">y</text><rect x="945" y="818" width="10" height="8" fill="#C77A1F"/><text x="942" y="825.5" text-anchor="end" style="font-family:ui-monospace,'SFMono-Regular',Menlo,Consolas,monospace" font-size="9" fill="#59647A">x/y</text><rect x="880" y="900" width="90" height="44" rx="4" fill="#ECEEF3" stroke="#C7CDD8" stroke-width="2"/><text x="925.0" y="915" text-anchor="middle" style="font-family:ui-monospace,'SFMono-Regular',Menlo,Consolas,monospace" font-size="11.5" font-weight="600" fill="#1B2130">100</text><rect x="965" y="928" width="10" height="8" fill="#C77A1F"/><text x="962" y="935.5" text-anchor="end" style="font-family:ui-monospace,'SFMono-Regular',Menlo,Consolas,monospace" font-size="9" fill="#59647A"></text><rect x="1020" y="790" width="140" height="60" rx="4" fill="#ECEEF3" stroke="#C7CDD8" stroke-width="2"/><text x="1090.0" y="805" text-anchor="middle" style="font-family:ui-monospace,'SFMono-Regular',Menlo,Consolas,monospace" font-size="11.5" font-weight="600" fill="#1B2130">Multiply</text><rect x="1015" y="816.0" width="10" height="8" fill="#C77A1F"/><text x="1028" y="823.5" style="font-family:ui-monospace,'SFMono-Regular',Menlo,Consolas,monospace" font-size="9" fill="#59647A">x</text><rect x="1015" y="839.0" width="10" height="8" fill="#C77A1F"/><text x="1028" y="846.5" style="font-family:ui-monospace,'SFMono-Regular',Menlo,Consolas,monospace" font-size="9" fill="#59647A">y</text><rect x="1155" y="818" width="10" height="8" fill="#C77A1F"/><text x="1152" y="825.5" text-anchor="end" style="font-family:ui-monospace,'SFMono-Regular',Menlo,Consolas,monospace" font-size="9" fill="#59647A">x*y</text><rect x="1020" y="940" width="140" height="44" rx="4" fill="#FFFFFF" stroke="#C7CDD8" stroke-width="2" stroke-dasharray="5 3"/><text x="1090.0" y="955" text-anchor="middle" style="font-family:ui-monospace,'SFMono-Regular',Menlo,Consolas,monospace" font-size="11.5" font-weight="600" fill="#1B2130">FPY %</text><rect x="1015" y="968" width="10" height="8" fill="#C77A1F"/><text x="1028" y="975.5" style="font-family:ui-monospace,'SFMono-Regular',Menlo,Consolas,monospace" font-size="9" fill="#59647A"></text><rect x="880" y="690" width="185" height="44" rx="4" fill="#FFFFFF" stroke="#C7CDD8" stroke-width="2" stroke-dasharray="5 3"/><text x="972.5" y="705" text-anchor="middle" style="font-family:ui-monospace,'SFMono-Regular',Menlo,Consolas,monospace" font-size="11.5" font-weight="600" fill="#1B2130">error codes</text><rect x="875" y="718" width="10" height="8" fill="#3D6FE0"/><text x="888" y="725.5" style="font-family:ui-monospace,'SFMono-Regular',Menlo,Consolas,monospace" font-size="9" fill="#59647A"></text><rect x="880" y="1000" width="185" height="44" rx="4" fill="#FFFFFF" stroke="#C7CDD8" stroke-width="2" stroke-dasharray="5 3"/><text x="972.5" y="1015" text-anchor="middle" style="font-family:ui-monospace,'SFMono-Regular',Menlo,Consolas,monospace" font-size="11.5" font-weight="600" fill="#1B2130">csv rows</text><rect x="875" y="1028" width="10" height="8" fill="#BB4FB0"/><text x="888" y="1035.5" style="font-family:ui-monospace,'SFMono-Regular',Menlo,Consolas,monospace" font-size="9" fill="#59647A"></text><rect x="1020" y="1090" width="170" height="60" rx="4" fill="#ECEEF3" stroke="#C7CDD8" stroke-width="2"/><text x="1105.0" y="1105" text-anchor="middle" style="font-family:ui-monospace,'SFMono-Regular',Menlo,Consolas,monospace" font-size="11.5" font-weight="600" fill="#1B2130">TCP Close Connection</text><rect x="1015" y="1116.0" width="10" height="8" fill="#6B7A8F"/><text x="1028" y="1123.5" style="font-family:ui-monospace,'SFMono-Regular',Menlo,Consolas,monospace" font-size="9" fill="#59647A">connection ID</text><rect x="1015" y="1139.0" width="10" height="8" fill="#6B6F2A"/><text x="1028" y="1146.5" style="font-family:ui-monospace,'SFMono-Regular',Menlo,Consolas,monospace" font-size="9" fill="#59647A">error in</text><rect x="1185" y="1118" width="10" height="8" fill="#6B6F2A"/><text x="1182" y="1125.5" text-anchor="end" style="font-family:ui-monospace,'SFMono-Regular',Menlo,Consolas,monospace" font-size="9" fill="#59647A">error out</text><rect x="760" y="1100" width="185" height="54" rx="4" fill="#ECEEF3" stroke="#C7CDD8" stroke-width="2"/><text x="852.5" y="1115" text-anchor="middle" style="font-family:ui-monospace,'SFMono-Regular',Menlo,Consolas,monospace" font-size="11.5" font-weight="600" fill="#1B2130">Simple Error Handler.vi</text><text x="852.5" y="1127" text-anchor="middle" style="font-family:ui-monospace,'SFMono-Regular',Menlo,Consolas,monospace" font-size="9" fill="#59647A">SubVI</text><rect x="755" y="1138" width="10" height="8" fill="#6B6F2A"/><text x="768" y="1145.5" style="font-family:ui-monospace,'SFMono-Regular',Menlo,Consolas,monospace" font-size="9" fill="#59647A">error in</text><text x="25" y="1200" text-anchor="start" style="font-family:ui-monospace,'SFMono-Regular',Menlo,Consolas,monospace" font-size="10.5" fill="#2F5DE0" font-weight="600">THE SHIFT REGISTERS ARE THE WHOLE POINT. The socket and the error cluster leave the loop</text><text x="25" y="1216" text-anchor="start" style="font-family:ui-monospace,'SFMono-Regular',Menlo,Consolas,monospace" font-size="10.5" fill="#2F5DE0">body on the RIGHT border and re-enter on the LEFT on the next iteration. Unit 5 therefore runs</text><text x="25" y="1232" text-anchor="start" style="font-family:ui-monospace,'SFMono-Regular',Menlo,Consolas,monospace" font-size="10.5" fill="#2F5DE0">on whatever socket unit 4 left behind — including a brand-new one the Case Structure just opened.</text><text x="25" y="1254" text-anchor="start" style="font-family:ui-monospace,'SFMono-Regular',Menlo,Consolas,monospace" font-size="10.5" fill="#59647A">Wire a shift register only ONE side and the loop still compiles — it just silently reuses the</text><text x="25" y="1270" text-anchor="start" style="font-family:ui-monospace,'SFMono-Regular',Menlo,Consolas,monospace" font-size="10.5" fill="#59647A">initial value forever. That is the single most common shift-register bug and it looks like a DUT fault.</text><text x="25" y="1292" text-anchor="start" style="font-family:ui-monospace,'SFMono-Regular',Menlo,Consolas,monospace" font-size="10.5" fill="#59647A">A CONDITIONAL tunnel (TT1, TT2) has a small condition terminal under it: only iterations whose</text><text x="25" y="1308" text-anchor="start" style="font-family:ui-monospace,'SFMono-Regular',Menlo,Consolas,monospace" font-size="10.5" fill="#59647A">condition is TRUE contribute an element. That is how tester errors are counted separately from</text><text x="25" y="1324" text-anchor="start" style="font-family:ui-monospace,'SFMono-Regular',Menlo,Consolas,monospace" font-size="10.5" fill="#59647A">unit failures — availability and FPY are different numbers and must never be computed from one array.</text><text x="25" y="1346" text-anchor="start" style="font-family:ui-monospace,'SFMono-Regular',Menlo,Consolas,monospace" font-size="10.5" fill="#59647A">Clear Errors sits between Sequencer and the case so the loop keeps running. Without it the error</text><text x="25" y="1362" text-anchor="start" style="font-family:ui-monospace,'SFMono-Regular',Menlo,Consolas,monospace" font-size="10.5" fill="#59647A">rides the shift register into every later iteration and the whole batch reports the same failure.</text><text x="25" y="1384" text-anchor="start" style="font-family:ui-monospace,'SFMono-Regular',Menlo,Consolas,monospace" font-size="10.5" fill="#59647A">The socket is CHAINED through the golden-unit gate into SR1, never branched off TCP Open — same</text><text x="25" y="1400" text-anchor="start" style="font-family:ui-monospace,'SFMono-Regular',Menlo,Consolas,monospace" font-size="10.5" fill="#59647A">rule as Compare_OCV. TCP Close after the loop reads SR1’s RIGHT-side output, so it closes the</text><text x="25" y="1416" text-anchor="start" style="font-family:ui-monospace,'SFMono-Regular',Menlo,Consolas,monospace" font-size="10.5" fill="#59647A">socket that is actually live, not the one opened at the start.</text><rect x="30" y="244" width="12" height="12" fill="none" stroke="#2F5DE0" stroke-width="2"/><text x="36" y="236" text-anchor="middle" style="font-family:ui-monospace,'SFMono-Regular',Menlo,Consolas,monospace" font-size="9" fill="#2F5DE0">N</text><text x="84" y="236" text-anchor="middle" style="font-family:ui-monospace,'SFMono-Regular',Menlo,Consolas,monospace" font-size="9" fill="#59647A">count terminal</text><rect x="30" y="630" width="12" height="12" fill="none" stroke="#2F5DE0" stroke-width="2"/><text x="36" y="624" text-anchor="middle" style="font-family:ui-monospace,'SFMono-Regular',Menlo,Consolas,monospace" font-size="9" fill="#2F5DE0">i</text><text x="92" y="624" text-anchor="middle" style="font-family:ui-monospace,'SFMono-Regular',Menlo,Consolas,monospace" font-size="9" fill="#59647A">iteration terminal</text><circle cx="1130" cy="636" r="8" fill="none" stroke="#C03F3F" stroke-width="2.5"/><text x="1130" y="664" text-anchor="middle" style="font-family:ui-monospace,'SFMono-Regular',Menlo,Consolas,monospace" font-size="9" fill="#C03F3F">conditional terminal</text><rect x="19" y="294" width="12" height="12" fill="none" stroke="#2F5DE0" stroke-width="2"/><rect x="1139" y="294" width="12" height="12" fill="none" stroke="#2F5DE0" stroke-width="2"/><text x="96" y="288" text-anchor="middle" style="font-family:ui-monospace,'SFMono-Regular',Menlo,Consolas,monospace" font-size="9" fill="#2F5DE0">SR1  refnum  ◀▶</text><rect x="19" y="354" width="12" height="12" fill="none" stroke="#2F5DE0" stroke-width="2"/><rect x="1139" y="354" width="12" height="12" fill="none" stroke="#2F5DE0" stroke-width="2"/><text x="96" y="348" text-anchor="middle" style="font-family:ui-monospace,'SFMono-Regular',Menlo,Consolas,monospace" font-size="9" fill="#2F5DE0">SR2  error  ◀▶</text><rect x="1139" y="259" width="12" height="12" fill="none" stroke="#59647A" stroke-width="2"/><text x="1085" y="252" text-anchor="end" style="font-family:ui-monospace,'SFMono-Regular',Menlo,Consolas,monospace" font-size="9" fill="#59647A">TT1 conditional</text><rect x="1141" y="274" width="8" height="8" fill="none" stroke="#C03F3F" stroke-width="1.5"/><rect x="1139" y="554" width="12" height="12" fill="none" stroke="#59647A" stroke-width="2"/><text x="1085" y="548" text-anchor="end" style="font-family:ui-monospace,'SFMono-Regular',Menlo,Consolas,monospace" font-size="9" fill="#59647A">TT2 conditional</text><rect x="1141" y="569" width="8" height="8" fill="none" stroke="#C03F3F" stroke-width="1.5"/><rect x="1139" y="584" width="12" height="12" fill="none" stroke="#59647A" stroke-width="2"/><text x="1085" y="606" text-anchor="end" style="font-family:ui-monospace,'SFMono-Regular',Menlo,Consolas,monospace" font-size="9" fill="#59647A">TT3 / TT4 auto-indexing [ ]</text><rect x="1139" y="614" width="12" height="12" fill="none" stroke="#59647A" stroke-width="2"/><rect x="784" y="414" width="12" height="12" fill="none" stroke="#2F5DE0" stroke-width="2"/><text x="790" y="407" text-anchor="middle" style="font-family:ui-monospace,'SFMono-Regular',Menlo,Consolas,monospace" font-size="10.5" fill="#2F5DE0">?</text><rect x="784" y="344" width="12" height="12" fill="none" stroke="#59647A" stroke-width="2"/><rect x="784" y="514" width="12" height="12" fill="none" stroke="#59647A" stroke-width="2"/><rect x="1124" y="344" width="12" height="12" fill="none" stroke="#59647A" stroke-width="2"/><rect x="1124" y="514" width="12" height="12" fill="none" stroke="#59647A" stroke-width="2"/><text x="960" y="566" text-anchor="middle" style="font-family:ui-monospace,'SFMono-Regular',Menlo,Consolas,monospace" font-size="9" fill="#59647A">FALSE case: both tunnels wired straight across, nothing else</text></svg>